<?xml version="1.0" encoding="UTF-8"?>
<svg version="1.1" xmlns="http://www.w3.org/2000/svg" width="500" height="500">
<path d="M0 0 C9.18582316 7.10001971 17.3661529 15.75990153 21 27 C21 27.99 21 28.98 21 30 C21.58265625 29.84402344 22.1653125 29.68804687 22.765625 29.52734375 C34.30190101 26.78838514 44.0254087 28.18293564 54.12109375 34.28125 C59.50771579 37.94700413 62.85927776 42.33495895 66 48 C66.34160156 48.59167969 66.68320312 49.18335938 67.03515625 49.79296875 C70.51237951 57.1193973 70.10882417 67.22641799 68.30859375 74.9765625 C64.74542677 84.60754939 58.24421296 92.51406294 48.921875 97 C42.69098834 99.47332906 36.63153961 100.12420259 29.94091797 100.14044189 C29.25398802 100.14341302 28.56705807 100.14638414 27.85931206 100.1494453 C25.57025798 100.15807867 23.28125653 100.15963594 20.9921875 100.16113281 C19.34588511 100.1657646 17.69958378 100.17078974 16.05328369 100.17617798 C11.59056893 100.18926478 7.12786918 100.19573905 2.66513824 100.20018864 C-0.1239797 100.20312393 -2.91309358 100.20722948 -5.70220947 100.21169281 C-14.43205432 100.22535473 -23.16188982 100.23502913 -31.89174461 100.2388947 C-41.96397374 100.24337961 -52.03606744 100.26095303 -62.10825539 100.2898953 C-69.89949128 100.31150571 -77.69068903 100.32159855 -85.48195457 100.32293582 C-90.13338815 100.32398383 -94.7846942 100.32989141 -99.43609619 100.34775543 C-103.8093559 100.36422619 -108.18239203 100.3663965 -112.55567169 100.35761642 C-114.1592697 100.35684565 -115.7628797 100.36119405 -117.36644745 100.37107468 C-119.5582037 100.38378644 -121.74916696 100.37792239 -123.94091797 100.36749268 C-125.16648407 100.36895924 -126.39205017 100.3704258 -127.65475464 100.3719368 C-133.31749409 99.7423324 -137.35088987 97.32487126 -141 93 C-142.87151006 87.38546981 -142.91188821 81.92899429 -140.375 76.5625 C-134.7049413 70.44480509 -126.86326398 69.64498549 -119 68 C-119.33 67.01 -119.66 66.02 -120 65 C-119.56224139 57.02748712 -117.09918496 50.15671613 -112 44 C-104.10802658 36.97913402 -96.8787839 34.75922637 -86.453125 34.83203125 C-84 35 -84 35 -81 36 C-80.86464844 35.27296875 -80.72929687 34.5459375 -80.58984375 33.796875 C-77.38221589 18.8151401 -69.08762667 7.0569387 -56.25 -1.375 C-38.74644706 -10.98693547 -16.92054481 -10.88329442 0 0 Z " fill="#D3D3D3" transform="translate(377,177)"/>
<path d="M0 0 C2.13686033 1.65348319 4.24216637 3.33140597 6.31640625 5.0625 C5.67922024 7.07208663 5.00477138 9.06986409 4.31640625 11.0625 C3.94515625 12.8878125 3.94515625 12.8878125 3.56640625 14.75 C2.8046875 16.53515625 2.8046875 16.53515625 1.31640625 18.0625 C-2.10813169 19.14369494 -5.50039033 19.73097398 -9.0390625 20.3359375 C-18.46365387 22.21479494 -26.6693955 27.62660654 -32.37109375 35.34765625 C-35.16543894 39.75573579 -36.88242417 43.70450731 -38.18359375 48.75 C-39.46406521 52.64613538 -40.29680384 53.82063633 -43.83203125 56.03125 C-45.68925405 56.92706935 -47.56625752 57.7533005 -49.45996094 58.56884766 C-56.24229445 61.54258515 -58.90868872 65.43201243 -62.05859375 71.875 C-63.71621557 80.32887126 -63.28579479 87.64201298 -58.68359375 95.0625 C-53.13132894 101.63755043 -47.14270666 104.83287571 -38.68359375 106.0625 C-33.72612926 106.3810434 -28.77070079 106.43490023 -23.8046875 106.4765625 C-22.38264382 106.4953071 -20.96061088 106.51488287 -19.53858948 106.5352478 C-15.82500587 106.58622788 -12.11138634 106.62603436 -8.39764404 106.66339111 C-4.59638838 106.70364678 -0.79527774 106.75463988 3.00585938 106.8046875 C10.44260827 106.90104178 17.87942829 106.98557384 25.31640625 107.0625 C19.84853023 124.4597399 3.16065705 137.50367112 -12.37109375 145.75 C-34.35718056 156.43101379 -58.62191387 156.53442227 -81.46875 148.77734375 C-103.57275424 139.98959456 -119.31559354 123.41113281 -129.05859375 102.0625 C-136.98203186 82.12184743 -137.96554626 58.08238942 -129.83789062 37.96972656 C-121.54321793 18.87084645 -108.75492788 4.32742332 -90.68359375 -5.9375 C-89.66652344 -6.51628906 -88.64945313 -7.09507812 -87.6015625 -7.69140625 C-60.02061787 -21.81823155 -24.8859586 -17.96715497 0 0 Z " fill="#E8CE05" transform="translate(286.68359375,181.9375)"/>
<path d="M0 0 C1.40723328 0.59844727 1.40723328 0.59844727 2.84289551 1.20898438 C5.84584239 2.48735229 8.8449137 3.77452276 11.84375 5.0625 C15.74891993 6.73170267 19.65560649 8.39733616 23.5625 10.0625 C24.52502686 10.47346924 25.48755371 10.88443848 26.47924805 11.30786133 C36.72176038 15.67090332 47.02636104 19.88016752 57.34375 24.0625 C57.34375 28.06531039 55.40072145 30.25497038 53.21875 33.4375 C48.81716133 40.03596467 45.44232217 46.74743943 42.34375 54.0625 C37.67514027 52.56187544 34.30735649 49.83720911 30.59375 46.75 C29.25262487 45.6559286 27.91012566 44.56353983 26.56640625 43.47265625 C25.8717627 42.90820801 25.17711914 42.34375977 24.46142578 41.76220703 C21.03143781 39.00920078 17.53360071 36.3474462 14.03125 33.6875 C7.1439182 28.45087073 0.30361811 23.15731041 -6.50512695 17.81884766 C-9.81823246 15.22994938 -13.14432659 12.69361569 -16.5859375 10.27734375 C-20.90491835 7.16174306 -20.90491835 7.16174306 -21.65625 4.0625 C-21.59375 1 -21.59375 1 -20.65625 -1.9375 C-14.23978088 -7.62065836 -6.78597578 -2.93287196 0 0 Z " fill="#E8CE06" transform="translate(99.65625,160.9375)"/>
<path d="M0 0 C2.67744427 1.26997595 5.03324173 2.65102386 7.3984375 4.43359375 C8.35399536 5.15119873 8.35399536 5.15119873 9.32885742 5.88330078 C10.00408447 6.39618652 10.67931152 6.90907227 11.375 7.4375 C12.43521362 8.23776611 12.43521362 8.23776611 13.5168457 9.05419922 C19.27684191 13.4165635 24.96434936 17.86741656 30.6328125 22.34765625 C33.92267995 24.94556947 37.23760792 27.50962773 40.5625 30.0625 C41.08787354 30.46621826 41.61324707 30.86993652 42.15454102 31.28588867 C44.96476703 33.44345597 47.7796591 35.59478123 50.59765625 37.7421875 C51.18796631 38.19327881 51.77827637 38.64437012 52.38647461 39.10913086 C53.51474631 39.97121853 54.64438869 40.83151635 55.77563477 41.68969727 C62.59733525 46.90705283 62.59733525 46.90705283 63.875 50.375 C64.04466185 53.93789883 63.36604164 55.33820316 61 58 C54.63228822 59.78717761 50.59284797 58.10140525 44.82421875 55.546875 C43.51114243 54.98935043 43.51114243 54.98935043 42.17153931 54.42056274 C39.33656686 53.2126087 36.51226207 51.98161669 33.6875 50.75 C31.74766933 49.91849554 29.80715483 49.0885846 27.8659668 48.26025391 C24.01991201 46.61649607 20.1777231 44.96421012 16.33886719 43.30371094 C10.47115645 40.76733217 4.58431691 38.27787017 -1.30737305 35.79785156 C-5.87566738 33.87484547 -10.43813157 31.93818962 -15 30 C-15 25.99718961 -13.05697145 23.80752962 -10.875 20.625 C-6.47341133 14.02653533 -3.09857217 7.31506057 0 0 Z " fill="#E8CE06" transform="translate(331,287)"/>
<path d="M0 0 C3 1 3 1 4.796875 4.24609375 C5.45572044 5.63956614 6.10630586 7.03696422 6.75 8.4375 C9.60943937 14.46023189 12.70681313 19.81763332 16.84765625 25.08203125 C17.22792969 25.71496094 17.60820312 26.34789062 18 27 C17 30 17 30 15.28144836 31.02151489 C14.53284042 31.32524017 13.78423248 31.62896545 13.01293945 31.94189453 C12.16306961 32.293013 11.31319977 32.64413147 10.43757629 33.00588989 C9.50555893 33.37777435 8.57354156 33.74965881 7.61328125 34.1328125 C6.64585495 34.52894745 5.67842865 34.9250824 4.6816864 35.33322144 C1.56274626 36.6075505 -1.56215285 37.86647742 -4.6875 39.125 C-6.71330398 39.94950595 -8.73869943 40.77501642 -10.76367188 41.6015625 C-14.80930058 43.25179659 -18.8591554 44.89105025 -22.91162109 46.52441406 C-27.02921191 48.18873429 -31.12810114 49.8911122 -35.21728516 51.62402344 C-36.21395706 52.04287811 -37.21062897 52.46173279 -38.23750305 52.89328003 C-40.12428793 53.68764801 -42.00766269 54.49018353 -43.8868866 55.30227661 C-48.37487937 57.1819729 -52.03694848 58.67462669 -57 58 C-60.05623277 55.90889337 -60.86463014 54.70693151 -61.5625 51.0625 C-60.48640805 45.20377715 -54.79592728 41.938888 -50.25 38.5 C-49.08853661 37.61719416 -47.92707854 36.73438131 -46.765625 35.8515625 C-46.15267578 35.38782227 -45.53972656 34.92408203 -44.90820312 34.44628906 C-42.29161098 32.46308898 -39.68620405 30.4654279 -37.08007812 28.46850586 C-31.53486564 24.22043052 -25.98077918 19.98404564 -20.421875 15.75390625 C-19.47957031 15.0367041 -18.53726563 14.31950195 -17.56640625 13.58056641 C-15.7256959 12.1799288 -13.8845677 10.77984013 -12.04296875 9.38037109 C-11.19863281 8.73793457 -10.35429687 8.09549805 -9.484375 7.43359375 C-8.69611328 6.83659668 -7.90785156 6.23959961 -7.09570312 5.62451172 C-5.37995222 4.29452494 -3.72000122 2.89283528 -2.078125 1.47265625 C-1.39234375 0.98667969 -0.7065625 0.50070312 0 0 Z " fill="#E8CE06" transform="translate(139,287)"/>
<path d="M0 0 C2.46922509 2.21290812 3.70700245 4.18685688 4.95776367 7.24584961 C5.31210983 8.10202377 5.66645599 8.95819794 6.03153992 9.84031677 C6.40656143 10.76828568 6.78158295 11.69625458 7.16796875 12.65234375 C7.56647537 13.6216835 7.96498199 14.59102325 8.37556458 15.58973694 C9.65327995 18.70281564 10.92042219 21.82007868 12.1875 24.9375 C13.02081311 26.97097834 13.85479095 29.0041844 14.68945312 31.03710938 C16.33870338 35.05831323 17.9769366 39.0837485 19.60693359 43.11279297 C21.17751752 46.99300741 22.77534628 50.86009258 24.39697266 54.71923828 C25.13579461 56.50160587 25.87456665 58.28399416 26.61328125 60.06640625 C26.95699265 60.86876205 27.30070404 61.67111786 27.65483093 62.49778748 C29.57151715 67.16558243 30.48046874 70.85927171 30 76 C28.46609879 78.42194927 27.30591626 78.88729401 24.625 79.875 C21.14260395 80.04082838 19.83228616 78.99420452 17 77 C15.10546875 74.8203125 15.10546875 74.8203125 13.1875 72.125 C12.41277344 71.05894531 11.63804687 69.99289062 10.83984375 68.89453125 C10.39882324 68.28561035 9.95780273 67.67668945 9.50341797 67.04931641 C6.47831206 62.92577971 3.35554186 58.87557168 0.25 54.8125 C-1.13938223 52.99093066 -2.52870509 51.16931603 -3.91796875 49.34765625 C-5.27857361 47.56504904 -6.63924848 45.78249526 -8 44 C-8.93126709 42.77966064 -8.93126709 42.77966064 -9.88134766 41.53466797 C-11.60780425 39.2726575 -13.3350538 37.01125477 -15.0625 34.75 C-15.59286865 34.05487305 -16.1232373 33.35974609 -16.66967773 32.64355469 C-20.03408476 28.24052559 -23.44240424 23.87634729 -26.92578125 19.56640625 C-28 18 -28 18 -28 16 C-26.98421875 15.5153125 -25.9684375 15.030625 -24.921875 14.53125 C-16.12130929 10.26820794 -7.98245574 5.68447606 0 0 Z " fill="#E8CE06" transform="translate(300,330)"/>
<path d="M0 0 C3.6142408 1.30214299 6.3820996 2.87344459 9.4375 5.1875 C15.56778877 9.60204986 22.1968199 12.77486131 29 16 C27.46058563 20.83815944 24.68635174 24.15789767 21.5 28 C20.40784653 29.3403254 19.31671683 30.6814856 18.2265625 32.0234375 C17.68161133 32.69213867 17.13666016 33.36083984 16.57519531 34.04980469 C14.29503138 36.87279748 12.07877008 39.74219464 9.875 42.625 C9.47015381 43.15359619 9.06530762 43.68219238 8.64819336 44.22680664 C7.4311889 45.8171522 6.21559115 47.40857391 5 49 C-0.28195741 55.89875425 -5.58657714 62.77955504 -10.9375 69.625 C-11.39825928 70.21724365 -11.85901855 70.8094873 -12.33374023 71.41967773 C-17.05077362 77.43627522 -17.05077362 77.43627522 -19 79 C-22.4093712 79.36528977 -24.88023824 79.6140629 -27.9375 77.9375 C-29.55113807 74.99498351 -29.41968727 72.24358507 -29 69 C-27.96467371 65.5696539 -26.57431698 62.3167946 -25.16015625 59.02734375 C-24.75977646 58.06840714 -24.35939667 57.10947052 -23.94688416 56.12147522 C-22.66366585 53.05513565 -21.36360267 49.99628772 -20.0625 46.9375 C-19.22214745 44.93994066 -18.38294459 42.94189725 -17.54492188 40.94335938 C-16.29242468 37.95761925 -15.03842555 34.97258118 -13.77822876 31.99008179 C-10.36994197 23.92085183 -7.04866656 15.81782631 -3.77613831 7.69261169 C-3.425186 6.826689 -3.0742337 5.9607663 -2.71264648 5.06860352 C-2.40487778 4.30451675 -2.09710907 3.54042999 -1.78001404 2.75318909 C-1 1 -1 1 0 0 Z " fill="#E8CE06" transform="translate(171,330)"/>
<path d="M0 0 C3.58220625 0.955255 4.86381774 1.55416109 6.8125 4.75 C6.99429541 11.14011389 4.93751506 16.72078506 2.3828125 22.46484375 C2.03620071 23.27067398 1.68958893 24.07650421 1.33247375 24.90675354 C0.21190074 27.50529831 -0.9251272 30.09627066 -2.0625 32.6875 C-2.83708514 34.47603073 -3.61043432 36.26509723 -4.38256836 38.0546875 C-5.92125112 41.61799747 -7.46543768 45.17883571 -9.01416016 48.73779297 C-11.97607624 55.55421067 -14.8657116 62.40042842 -17.75 69.25 C-18.6260473 71.32302435 -19.50231895 73.39595393 -20.37890625 75.46875 C-20.98182544 76.89581026 -21.58471425 78.32288337 -22.1875 79.75 C-25.84553874 78.33600978 -28.91971837 76.73936063 -32.1875 74.5625 C-38.33406382 70.57100699 -44.69752609 67.14459685 -51.1875 63.75 C-49.68687544 59.08139027 -46.96220911 55.71360649 -43.875 52 C-42.7809286 50.65887487 -41.68853983 49.31637566 -40.59765625 47.97265625 C-40.03320801 47.2780127 -39.46875977 46.58336914 -38.88720703 45.86767578 C-36.13419263 42.43767766 -33.47277174 38.93961443 -30.8125 35.4375 C-26.16686166 29.33777054 -21.50671112 23.24996483 -16.8125 17.1875 C-16.25385254 16.46199951 -15.69520508 15.73649902 -15.11962891 14.98901367 C-12.30418516 11.35989413 -9.43357412 7.78121799 -6.47265625 4.26953125 C-5.919729 3.61186768 -5.36680176 2.9542041 -4.79711914 2.27661133 C-3.1875 0.75 -3.1875 0.75 0 0 Z " fill="#E8CE06" transform="translate(324.1875,92.25)"/>
<path d="M0 0 C3.20241029 2.54815443 5.53369129 5.75530226 8 9 C8.42909668 9.56315918 8.85819336 10.12631836 9.30029297 10.70654297 C11.79448238 13.98957591 14.26043254 17.29262569 16.71484375 20.60546875 C20.13654637 25.20814049 23.65505645 29.73205762 27.1875 34.25 C34.30706943 43.36755137 41.33605391 52.54149587 48 62 C44.69928221 64.69910913 41.21900335 66.42601615 37.375 68.25 C31.81542855 70.9358642 26.83696822 73.98870771 21.890625 77.71484375 C20 79 20 79 18 79 C15.45834041 72.8519577 12.91732598 66.703649 10.37670898 60.55517578 C9.51682288 58.47438878 8.65680222 56.39365738 7.79663086 54.31298828 C5.70140641 49.24472739 3.60846831 44.17554914 1.52001953 39.10449219 C-0.17496849 34.99050763 -1.88395676 30.88270542 -3.60205078 26.77832031 C-4.42357405 24.80276409 -5.24502868 22.82717931 -6.06640625 20.8515625 C-6.44836655 19.94683197 -6.83032684 19.04210144 -7.22386169 18.10995483 C-11.75840339 7.15853273 -11.75840339 7.15853273 -10.1875 2.6875 C-7.59122652 -1.00194126 -4.15309467 -0.66985398 0 0 Z " fill="#E8CE06" transform="translate(153,93)"/>
<path d="M0 0 C0 11.22 0 22.44 0 34 C-7.28769106 33.05873771 -14.57531557 32.11698416 -21.86279297 31.17407227 C-24.33150775 30.85478943 -26.80025664 30.53577016 -29.26904297 30.21704102 C-36.38146712 29.29870239 -43.49295858 28.37358716 -50.6036377 27.4418335 C-53.91556229 27.01098452 -57.22862951 26.59003569 -60.54199219 26.17041016 C-62.53584809 25.91209857 -64.52966547 25.65348942 -66.5234375 25.39453125 C-67.42977936 25.2824382 -68.33612122 25.17034515 -69.26992798 25.05485535 C-70.10301483 24.94498795 -70.93610168 24.83512054 -71.79443359 24.72192383 C-72.87463272 24.58431389 -72.87463272 24.58431389 -73.97665405 24.44392395 C-76.25346313 23.94438996 -78.00283068 23.1983998 -80 22 C-81.52491998 18.95016004 -81.23562548 16.3576631 -81 13 C-78.51080037 9.76324266 -76.02491281 9.42406663 -72.05029297 8.85725403 C-71.22932129 8.75353989 -70.40834961 8.64982574 -69.5625 8.54296875 C-68.68996582 8.42269821 -67.81743164 8.30242767 -66.91845703 8.17851257 C-63.94722231 7.77282699 -60.97380625 7.38635563 -58 7 C-55.78765409 6.70342879 -53.57541773 6.40603949 -51.36328125 6.10791016 C-45.45743609 5.31690786 -39.54918145 4.54587986 -33.63964844 3.78295898 C-29.9494211 3.3059622 -26.25985942 2.82402542 -22.5703125 2.34179688 C-20.21357974 2.03616459 -17.85681027 1.73081521 -15.5 1.42578125 C-14.40220215 1.28207596 -13.3044043 1.13837067 -12.17333984 0.99031067 C-11.1570752 0.85984848 -10.14081055 0.72938629 -9.09375 0.5949707 C-8.20365234 0.47966507 -7.31355469 0.36435944 -6.39648438 0.24555969 C-4 0 -4 0 0 0 Z " fill="#E8CE05" transform="translate(136,234)"/>
<path d="M0 0 C3.17115991 3.23337722 3.60048501 6.25303124 4.16674805 10.66113281 C4.25496826 11.32186295 4.34318848 11.98259308 4.43408203 12.66334534 C4.72182728 14.84191125 4.99203327 17.02225581 5.26171875 19.203125 C5.45829524 20.7253589 5.65580411 22.24747267 5.85420227 23.76947021 C6.26747426 26.95950293 6.6726483 30.15042209 7.0715332 33.34228516 C7.58089641 37.41668369 8.10522805 41.48896882 8.63507366 45.56074905 C9.0434259 48.70534457 9.44624034 51.85062887 9.84717751 54.99617767 C10.03864252 56.49689573 10.2312092 57.9974737 10.42493248 59.49790192 C12.27433289 73.89380041 12.27433289 73.89380041 12 81 C10.77410156 80.83628906 9.54820312 80.67257813 8.28515625 80.50390625 C2.33437982 79.84270887 -3.58210983 79.89063739 -9.5625 79.9375 C-11.21862305 79.94426758 -11.21862305 79.94426758 -12.90820312 79.95117188 C-15.60553012 79.96284862 -18.30272489 79.98012336 -21 80 C-20.39946915 70.95814348 -19.44163347 62.01331507 -18.22265625 53.03515625 C-18.05124619 51.75821396 -17.87983612 50.48127167 -17.70323181 49.16563416 C-17.34350931 46.49052533 -16.98094805 43.81582025 -16.61645508 41.14135742 C-16.1515705 37.72749253 -15.6954916 34.3125141 -15.24166203 30.89716434 C-14.80319658 27.60909712 -14.35619454 24.32220473 -13.91015625 21.03515625 C-13.74862564 19.81635269 -13.58709503 18.59754913 -13.42066956 17.34181213 C-13.26388229 16.20300095 -13.10709503 15.06418976 -12.94555664 13.89086914 C-12.81089493 12.89527481 -12.67623322 11.89968048 -12.53749084 10.87391663 C-11.78088949 6.82843525 -11.04733152 3.15954561 -8.25 0.0625 C-5.0776345 -1.43556149 -3.30509711 -1.05481823 0 0 Z " fill="#E8CE05" transform="translate(241,70)"/>
<path d="M0 0 C11.22 0 22.44 0 34 0 C32.58993928 14.12880841 30.86448806 28.19415316 28.96826172 42.265625 C28.49520046 45.78571376 28.0306783 49.30686751 27.56640625 52.828125 C27.26353658 55.08861083 26.96016958 57.34903009 26.65625 59.609375 C26.51973022 60.65107849 26.38321045 61.69278198 26.24255371 62.76605225 C24.36389331 76.54204508 24.36389331 76.54204508 21.1875 79.9375 C18.44643958 81.2688722 17.00553387 81.60110677 14 81 C10.27093425 77.23143608 9.35474035 74.23880168 8.69140625 69.04296875 C8.59953033 68.3587233 8.50765442 67.67447784 8.41299438 66.96949768 C8.11376972 64.71056778 7.8380267 62.44943228 7.5625 60.1875 C7.35789435 58.60626774 7.15189562 57.02521519 6.94458008 55.44433594 C6.39245441 51.19891256 5.86155478 46.9510938 5.33581543 42.70233154 C4.87387723 38.98508073 4.40154634 35.26917346 3.92964172 31.55317688 C2.59481898 21.03846483 1.29032433 10.52026134 0 0 Z " fill="#E8CE05" transform="translate(219,352)"/>
</svg>
